<?xml version="1.0" standalone="no"?>
<!DOCTYPE svg PUBLIC "-//W3C//DTD SVG 20010904//EN"
 "http://www.w3.org/TR/2001/REC-SVG-20010904/DTD/svg10.dtd">
<svg version="1.0" xmlns="http://www.w3.org/2000/svg"
 width="666.000000pt" height="666.000000pt" viewBox="0 0 666.000000 666.000000"
 preserveAspectRatio="xMidYMid meet">
<metadata>
Created by potrace 1.11, written by Peter Selinger 2001-2013
</metadata>
<g transform="translate(0.000000,666.000000) scale(0.100000,-0.100000)"
fill="#000000" stroke="none">
<path d="M3308 6655 c-2 -1 -34 -5 -73 -8 -155 -13 -296 -56 -444 -135 -224
-118 -430 -323 -550 -546 -97 -178 -194 -491 -217 -691 -3 -33 -8 -69 -10 -80
-5 -23 -4 -295 1 -342 4 -44 17 -134 21 -158 3 -11 7 -36 10 -55 3 -19 10 -53
16 -75 5 -22 12 -48 13 -57 14 -70 100 -338 131 -405 7 -17 14 -34 14 -37 0
-3 27 -70 61 -148 82 -193 305 -640 405 -814 l81 -141 -71 -90 c-39 -50 -98
-126 -131 -168 -33 -43 -65 -83 -70 -89 -9 -10 -174 -213 -235 -290 -126 -159
-645 -761 -790 -916 -23 -25 -80 -87 -128 -139 -104 -113 -119 -129 -290 -303
l-134 -136 6 -77 c8 -108 30 -185 82 -290 100 -202 282 -362 488 -430 63 -20
158 -33 183 -24 25 9 113 105 311 339 59 69 109 127 112 130 12 10 291 361
406 510 276 356 626 828 796 1073 7 11 18 26 23 34 9 12 22 -2 70 -69 75 -105
317 -440 327 -453 5 -5 81 -107 170 -225 236 -315 687 -889 743 -946 6 -6 31
-35 56 -64 24 -29 49 -58 54 -64 6 -6 39 -45 75 -86 151 -173 161 -182 211
-182 97 0 262 62 364 136 166 120 293 309 337 501 17 70 22 175 10 192 -4 6
-93 101 -198 210 -105 109 -215 225 -245 258 -30 32 -63 69 -74 80 -51 55
-221 245 -281 314 -16 19 -34 39 -40 45 -29 31 -164 188 -276 321 -221 264
-413 502 -645 799 l-77 99 18 31 c148 252 386 727 489 976 85 206 172 463 193
574 2 12 6 32 9 46 34 171 48 290 48 430 1 89 -11 258 -18 270 -1 3 -6 28 -9
55 -4 28 -11 66 -16 85 -5 19 -11 46 -14 60 -2 14 -9 37 -15 53 -6 15 -9 27
-6 27 10 0 -80 242 -124 336 -71 150 -132 237 -249 358 -203 210 -505 359
-769 382 -37 3 -83 7 -100 8 -18 2 -34 2 -35 1z m102 -660 c256 -24 451 -159
539 -370 43 -101 59 -193 59 -320 -1 -139 -18 -234 -74 -404 -95 -285 -239
-571 -512 -1014 l-85 -139 -48 75 c-47 72 -156 256 -207 347 -13 25 -42 74
-62 110 -35 61 -137 261 -173 340 -47 101 -129 334 -125 350 1 3 -4 15 -10 26
-6 12 -14 34 -17 50 -2 16 -7 40 -10 54 -30 146 -26 308 11 445 65 243 287
425 549 450 39 4 72 9 73 10 2 2 9 2 15 0 7 -2 41 -6 77 -10z"/>
</g>
</svg>
